<svg width="274" height="50" viewBox="0 0 274 50" fill="none" xmlns="http://www.w3.org/2000/svg">
<path d="M33.2408 0.824279C33.2963 0.833667 33.3517 0.850309 33.4072 0.851162C34.2248 0.859696 35.0419 0.870791 35.8595 0.888286C36.9753 0.912182 38.0903 0.952719 39.2049 0.99283C40.2337 1.02995 41.2621 1.08969 42.2892 1.16351C43.7263 1.26678 45.1622 1.37986 46.596 1.5292C48.3284 1.7097 50.0489 1.94994 51.7361 2.39116C53.4365 2.83622 55.038 3.49548 56.4244 4.60621C57.7873 5.69816 58.7243 7.09094 59.3273 8.71884C59.7894 9.96654 60.0331 11.259 60.1423 12.5831C60.2528 13.9217 60.313 15.2616 60.3565 16.6036C60.4051 18.103 60.4606 19.6025 60.4273 21.102C60.3966 22.5007 60.333 23.8986 60.2315 25.2948C60.1632 26.2366 60.0885 27.1779 60.0015 28.1175C59.9063 29.142 59.7821 30.1636 59.6785 31.1877C59.5415 32.5446 59.3396 33.8922 59.1088 35.235C58.7427 37.3656 58.2831 39.4671 57.4732 41.4885C56.3053 44.402 54.2093 46.2851 51.2825 47.3096C49.8146 47.8234 48.3002 48.1362 46.7683 48.3717C45.3645 48.5876 43.9508 48.7127 42.5332 48.8061C41.5339 48.8718 40.535 48.9307 39.5343 48.9751C38.1569 49.0365 36.7795 49.0766 35.4012 49.1091C34.669 49.1261 33.9367 49.1257 33.2049 49.1432C31.9112 49.1739 30.6174 49.1867 29.3232 49.1663C27.8732 49.1436 26.4232 49.1236 24.9737 49.086C23.8515 49.0574 22.7296 49.0143 21.6087 48.9584C20.4813 48.9021 19.3539 48.8364 18.2283 48.7489C15.9757 48.574 13.7316 48.3329 11.5434 47.7321C10.0491 47.3216 8.60724 46.7895 7.32327 45.8925C5.64204 44.7187 4.56246 43.1057 3.82425 41.2188C3.1573 39.5145 2.75022 37.7475 2.41952 35.9574C2.16776 34.5962 1.96209 33.2274 1.79439 31.8533C1.68771 30.9799 1.61048 30.103 1.52172 29.2274C1.43937 28.4153 1.35488 27.6037 1.28063 26.7909C1.22729 26.2041 1.1842 25.6161 1.14579 25.0285C1.00028 22.8011 0.941824 20.5703 0.948225 18.3386C0.951639 17.1523 0.945665 15.9639 1.0165 14.7785C1.11592 13.1058 1.20809 11.4319 1.65059 9.80226C2.1076 8.12017 2.86373 6.60108 4.08966 5.34228C5.1031 4.30111 6.31794 3.56504 7.65909 3.0244C9.1449 2.4253 10.699 2.09331 12.2727 1.83985C13.5976 1.62649 14.9332 1.49421 16.2692 1.37772C17.33 1.28513 18.3917 1.20448 19.4559 1.14687C20.9737 1.06494 22.4907 0.973201 24.0106 0.930957C25.2754 0.895967 26.5397 0.852015 27.8049 0.851589C27.8962 0.851589 27.9901 0.86695 28.0776 0.823853C29.7985 0.824279 31.5199 0.824279 33.2408 0.824279ZM30.6545 47.0651C30.6545 47.0647 30.6545 47.0643 30.6545 47.0634C31.8139 47.0634 32.9737 47.0886 34.1318 47.0575C35.7084 47.0152 37.2864 46.9922 38.8614 46.9C39.7263 46.8492 40.593 46.8253 41.4567 46.7592C42.808 46.6555 44.1594 46.5467 45.5019 46.3478C46.7747 46.1597 48.0387 45.9373 49.2637 45.5273C51.6 44.7455 53.341 43.2917 54.386 41.0374C54.9386 39.8456 55.3303 38.6009 55.629 37.3251C56.159 35.0605 56.4547 32.7593 56.7034 30.4499C56.8669 28.9325 57.0021 27.4126 57.1135 25.8909C57.2006 24.7013 57.2667 23.5082 57.2838 22.3155C57.3072 20.6881 57.3166 19.0597 57.2675 17.4314C57.2219 15.9115 57.1545 14.3941 56.997 12.8814C56.8745 11.705 56.6659 10.5477 56.2511 9.43486C55.635 7.78179 54.6117 6.4577 53.1024 5.52236C51.6815 4.64205 50.1095 4.19401 48.4824 3.91067C46.7329 3.606 44.9693 3.41612 43.201 3.25781C41.8428 3.13662 40.4821 3.06152 39.1221 2.97618C38.1936 2.91815 37.2634 2.87761 36.3336 2.84859C35.0761 2.80933 33.8181 2.77776 32.5606 2.76325C31.7503 2.75386 30.94 2.7577 30.1292 2.77818C28.7932 2.81189 27.4559 2.79227 26.1198 2.8392C25.4307 2.86353 24.7411 2.86694 24.052 2.88998C23.406 2.91174 22.7599 2.93991 22.1147 2.97874C21.0518 3.04189 19.9889 3.11059 18.9268 3.1874C18.2402 3.2369 17.5541 3.29578 16.8692 3.36832C15.8741 3.47372 14.8803 3.58851 13.8908 3.73657C12.6042 3.92902 11.3275 4.15774 10.0935 4.58871C7.26951 5.57527 5.47348 7.49674 4.74509 10.4095C4.36916 11.9132 4.25523 13.4489 4.15708 14.9864C4.09137 16.0143 4.04315 17.0444 4.03206 18.074C4.01158 19.972 4.00731 21.8696 4.09564 23.7672C4.1494 24.9236 4.22664 26.0778 4.31539 27.2321C4.41012 28.4636 4.52277 29.6929 4.65633 30.921C4.83086 32.5233 5.04379 34.12 5.3476 35.7031C5.68343 37.4509 6.11184 39.1714 6.84109 40.8049C7.58997 42.4823 8.6913 43.846 10.3141 44.7532C11.4679 45.3984 12.7135 45.7824 14.0017 46.0415C15.9543 46.434 17.9334 46.6171 19.9159 46.763C20.9217 46.8368 21.9287 46.8936 22.9362 46.9324C24.3921 46.9888 25.8485 47.0344 27.3048 47.0609C28.4211 47.0814 29.5382 47.0651 30.6545 47.0651Z" fill="#5F5F5F"/>
<path d="M75.3141 14.3405C75.481 14.3324 75.6478 14.3174 75.8147 14.3174C81.4784 14.3161 87.1417 14.3161 92.8054 14.3166C93.4049 14.3166 93.4058 14.3174 93.4062 14.9063C93.4071 15.6142 93.3981 16.3221 93.4101 17.03C93.4148 17.3146 93.3243 17.4401 93.0213 17.4691C92.1905 17.5489 91.3653 17.6829 90.534 17.7584C89.4553 17.8566 88.9057 18.3929 88.8673 19.5438C88.8298 20.6622 88.8622 21.7831 88.8537 22.9028C88.8515 23.1798 89.0034 23.2156 89.2232 23.2143C89.9311 23.2101 90.639 23.213 91.3469 23.213C94.9381 23.213 98.5293 23.2135 102.12 23.2126C102.635 23.2126 102.636 23.2105 102.637 22.7023C102.637 21.6598 102.644 20.6169 102.633 19.5745C102.621 18.4254 102.076 17.8672 100.926 17.7559C100.057 17.6718 99.1916 17.5472 98.3232 17.4516C98.1077 17.4277 98.0318 17.3108 98.0313 17.1209C98.0288 16.2841 98.03 15.4478 98.0309 14.611C98.0313 14.4045 98.1342 14.3046 98.3441 14.3161C98.4337 14.3213 98.5242 14.3153 98.6142 14.3153C104.252 14.3153 109.89 14.3153 115.528 14.3153C116.117 14.3153 116.118 14.3161 116.118 14.9123C116.119 15.6074 116.11 16.3025 116.122 16.9976C116.127 17.2856 116.064 17.4367 115.729 17.4704C114.771 17.5664 113.814 17.6842 112.863 17.8327C112.175 17.9402 111.77 18.3729 111.654 19.0616C111.601 19.3773 111.562 19.6957 111.562 20.0204C111.567 23.7277 111.567 27.4345 111.562 31.1417C111.562 31.4665 111.6 31.7852 111.656 32.1001C111.797 32.8972 112.341 33.3111 113.25 33.3978C114.106 33.4793 114.958 33.6056 115.813 33.6986C116.046 33.7238 116.12 33.8351 116.119 34.0502C116.114 34.8742 116.114 35.6977 116.118 36.5217C116.12 36.7526 116.016 36.8515 115.791 36.8405C115.701 36.8362 115.611 36.8413 115.52 36.8413C109.883 36.8413 104.245 36.8413 98.607 36.8413C98.0279 36.8413 98.0266 36.8405 98.0254 36.2687C98.0241 35.5736 98.0305 34.8784 98.0232 34.1833C98.0198 33.8863 98.086 33.7199 98.4414 33.6866C99.3614 33.6004 100.281 33.4891 101.193 33.3414C102.047 33.2032 102.523 32.6698 102.545 31.8134C102.577 30.6301 102.554 29.4451 102.562 28.261C102.563 28.0268 102.461 27.9372 102.236 27.9436C101.978 27.9508 101.721 27.944 101.463 27.944C97.4472 27.944 93.4314 27.944 89.4152 27.944C88.8554 27.944 88.8549 27.9448 88.8545 28.4855C88.8541 29.4507 88.8583 30.4163 88.8519 31.3816C88.8502 31.6679 88.8942 31.9474 88.9595 32.2213C89.1302 32.9356 89.6469 33.3081 90.4944 33.3952C91.3503 33.4827 92.2021 33.6068 93.058 33.6939C93.3264 33.7212 93.4084 33.8403 93.4062 34.089C93.3994 34.8742 93.3951 35.6593 93.4079 36.4445C93.4131 36.7483 93.2923 36.8498 92.9962 36.8451C92.1854 36.8323 91.3742 36.8413 90.5635 36.8413C85.6721 36.8413 80.7807 36.8417 75.8898 36.8405C75.6973 36.8405 75.5045 36.8255 75.312 36.8174C75.312 35.7873 75.312 34.7577 75.312 33.7276C76.3818 33.5979 77.4528 33.4788 78.5204 33.3342C79.2484 33.2352 79.6448 32.7812 79.7839 32.0707C79.8339 31.8155 79.8471 31.5621 79.8471 31.3047C79.8471 28.5409 79.8475 25.7771 79.8471 23.0138C79.8471 21.857 79.8586 20.6997 79.8407 19.5433C79.824 18.4689 79.3146 17.8962 78.2947 17.7721C77.3013 17.6513 76.3062 17.5433 75.312 17.4298C75.3141 16.4002 75.3141 15.3701 75.3141 14.3405Z" fill="#5F5F5F"/>
<path d="M132.704 37.5125C132.016 37.443 131.326 37.3845 130.638 37.3017C127.653 36.9416 124.759 36.2665 122.157 34.6783C119.209 32.8797 117.41 30.2917 117.033 26.8328C116.66 23.4102 117.569 20.3776 120.096 17.9406C121.636 16.4552 123.502 15.5118 125.519 14.8572C127.497 14.2154 129.531 13.8771 131.6 13.6838C133.437 13.5122 135.277 13.4973 137.113 13.5617C140.445 13.6786 143.725 14.131 146.811 15.4909C149.306 16.5897 151.368 18.1971 152.611 20.6903C153.515 22.5043 153.845 24.4322 153.678 26.4556C153.302 31.0261 150.697 33.8962 146.661 35.6606C144.523 36.5955 142.26 37.067 139.947 37.3094C139.283 37.379 138.62 37.4451 137.957 37.513C136.206 37.5125 134.455 37.5125 132.704 37.5125ZM143.263 25.5224C143.292 24.8465 143.22 24.1053 143.105 23.368C142.703 20.7689 141.343 18.9784 138.726 18.3225C136.548 17.7768 134.348 17.7755 132.159 18.2794C129.653 18.8563 128.16 20.4429 127.653 22.9476C127.29 24.7441 127.299 26.5482 127.681 28.3442C128.187 30.7244 129.607 32.2563 131.977 32.8388C134.236 33.3939 136.514 33.3952 138.769 32.8213C141.033 32.2452 142.429 30.7825 142.96 28.5C143.183 27.5433 143.281 26.5751 143.263 25.5224Z" fill="#5F5F5F"/>
<path d="M273.052 36.7402C272.898 36.7483 272.744 36.7641 272.59 36.7641C266.502 36.7654 260.414 36.7654 254.325 36.7649C253.719 36.7649 253.718 36.7641 253.718 36.1475C253.718 35.4396 253.726 34.7317 253.715 34.0238C253.71 33.7481 253.812 33.6453 254.091 33.6175C254.922 33.5356 255.749 33.4221 256.578 33.321C256.797 33.2941 257.006 33.2318 257.203 33.1332C257.765 32.8507 257.941 32.3933 257.673 31.8215C257.382 31.2015 256.946 30.6694 256.574 30.0985C256.444 29.8988 256.228 29.9585 256.043 29.9581C252.902 29.9551 249.761 29.9559 246.621 29.9559C245.449 29.9559 244.278 29.9628 243.107 29.9512C242.832 29.9487 242.651 30.0276 242.51 30.2726C242.208 30.7961 241.874 31.3014 241.565 31.8219C241.199 32.4402 241.376 32.9698 242.035 33.274C242.578 33.5249 243.173 33.4439 243.74 33.5424C244.005 33.5885 244.277 33.5949 244.546 33.6205C245.113 33.6747 245.113 33.6751 245.114 34.2572C245.114 34.9135 245.114 35.5702 245.113 36.2264C245.112 36.7624 245.111 36.7645 244.582 36.7645C241.132 36.7654 237.682 36.7649 234.233 36.7649C233.203 36.7649 232.173 36.7543 231.144 36.7709C230.808 36.7765 230.688 36.6668 230.697 36.3276C230.716 35.5685 230.711 34.8089 230.699 34.0494C230.694 33.7622 230.788 33.644 231.09 33.6154C231.947 33.5343 232.8 33.4187 233.654 33.3129C234.391 33.2215 234.89 32.7936 235.267 32.1817C236.604 30.0127 237.946 27.8463 239.286 25.6794C240.484 23.7422 241.684 21.8058 242.88 19.8677C243.042 19.6061 243.213 19.3496 243.223 19.0206C243.244 18.3874 242.832 17.9082 242.2 17.8421C240.986 17.7153 239.773 17.5754 238.558 17.4623C238.273 17.4358 238.185 17.3236 238.188 17.0531C238.199 16.294 238.206 15.534 238.185 14.7749C238.176 14.4224 238.293 14.3076 238.648 14.3093C241.068 14.3217 243.488 14.3157 245.908 14.3157C248.946 14.3157 251.984 14.3379 255.021 14.3038C256.114 14.2914 256.886 14.7203 257.47 15.6155C260.05 19.5715 262.641 23.5203 265.229 27.4716C266.244 29.0223 267.262 30.5704 268.269 32.1262C268.801 32.948 269.552 33.3419 270.522 33.402C271.367 33.4545 272.209 33.5651 273.052 33.65C273.052 34.6805 273.052 35.7105 273.052 36.7402ZM249.464 25.9009C250.764 25.9009 252.063 25.9018 253.362 25.8988C253.459 25.8984 253.59 25.9483 253.645 25.8399C253.699 25.7353 253.591 25.6521 253.537 25.5702C252.197 23.5267 250.852 21.4862 249.516 19.4401C249.361 19.2037 249.283 19.1538 249.111 19.4358C247.868 21.4798 246.61 23.5148 245.358 25.5531C245.161 25.874 245.176 25.8996 245.566 25.9001C246.866 25.9022 248.165 25.9009 249.464 25.9009Z" fill="#5F5F5F"/>
<path d="M184.199 30.817C184.199 27.7733 184.206 24.8388 184.195 21.9047C184.191 21.0185 184.271 20.1288 184.137 19.2455C183.991 18.2756 183.53 17.8608 182.561 17.7618C181.705 17.6743 180.853 17.5497 179.996 17.4631C179.728 17.4358 179.637 17.3236 179.653 17.0701C179.706 16.2235 179.753 15.3765 179.797 14.5291C179.807 14.3413 179.883 14.2406 180.077 14.2436C180.18 14.2449 180.283 14.2406 180.386 14.2406C184.801 14.2406 189.217 14.2402 193.632 14.2406C194.208 14.2406 194.209 14.2419 194.209 14.8133C194.21 15.534 194.202 16.2551 194.213 16.9758C194.217 17.2438 194.131 17.3624 193.845 17.3914C193.066 17.4704 192.292 17.6014 191.513 17.6765C190.186 17.8041 189.695 18.3131 189.659 19.6517C189.655 19.7934 189.657 19.9351 189.657 20.0763C189.657 25.4439 189.657 30.8115 189.657 36.179C189.657 36.7636 189.656 36.7649 189.061 36.7649C185.56 36.7649 182.059 36.7521 178.558 36.7717C177.534 36.7777 176.783 36.4026 176.159 35.5748C172.416 30.6118 168.644 25.6713 164.88 20.7236C164.798 20.6148 164.708 20.5115 164.612 20.3942C164.522 20.5367 164.561 20.6677 164.561 20.7902C164.558 24.1625 164.557 27.5352 164.562 30.9075C164.563 31.2796 164.59 31.6538 164.636 32.0233C164.738 32.8383 165.295 33.3022 166.204 33.3952C167.06 33.4827 167.912 33.6077 168.768 33.6939C169.04 33.7212 169.113 33.8437 169.11 34.0907C169.103 34.8631 169.094 35.6358 169.114 36.4073C169.123 36.7517 168.995 36.8481 168.664 36.8464C166.463 36.8358 164.262 36.8409 162.061 36.8409C159.744 36.8409 157.427 36.8345 155.11 36.8473C154.749 36.8494 154.603 36.75 154.615 36.3698C154.639 35.6239 154.63 34.8767 154.619 34.1304C154.615 33.8496 154.697 33.7182 155.004 33.6892C155.835 33.6107 156.661 33.4801 157.491 33.3986C158.63 33.2868 159.162 32.7001 159.17 31.4609C159.181 29.7362 159.173 28.0114 159.173 26.2862C159.173 24.1753 159.173 22.0643 159.173 19.953C159.173 19.8241 159.177 19.6952 159.169 19.5668C159.1 18.3695 158.585 17.86 157.402 17.7529C156.571 17.6778 155.745 17.5497 154.915 17.455C154.705 17.4311 154.623 17.3296 154.624 17.1294C154.626 16.2927 154.626 15.4563 154.624 14.6195C154.624 14.4117 154.719 14.3106 154.93 14.317C155.032 14.3204 155.136 14.3157 155.238 14.3157C160.13 14.3157 165.021 14.3157 169.913 14.3157C170.119 14.3157 170.325 14.3131 170.53 14.3208C171.319 14.349 171.945 14.6383 172.442 15.2971C176.243 20.3451 180.064 25.3786 183.878 30.4163C183.962 30.5273 184.051 30.6331 184.199 30.817Z" fill="#5F5F5F"/>
<path d="M208.358 36.7649C203.68 36.7649 199.818 36.7654 195.956 36.7645C195.404 36.7645 195.403 36.7628 195.402 36.2102C195.401 35.4895 195.41 34.7683 195.398 34.0476C195.393 33.7592 195.489 33.6465 195.79 33.615C196.748 33.5147 197.705 33.4007 198.656 33.2488C199.352 33.1379 199.756 32.7048 199.866 32.0199C199.921 31.6785 199.951 31.3291 199.952 30.983C199.957 27.2753 199.954 23.5681 199.958 19.8604C199.959 19.5361 199.925 19.2165 199.87 18.9011C199.775 18.3579 199.449 18.0033 198.918 17.8437C198.21 17.6308 197.471 17.6364 196.746 17.5357C195.471 17.3586 195.739 17.6231 195.71 16.4207C195.697 15.8416 195.716 15.2622 195.705 14.6827C195.701 14.4232 195.789 14.2918 196.061 14.3161C196.125 14.3221 196.19 14.3161 196.254 14.3161C203.669 14.3166 211.084 14.3012 218.499 14.3268C221.154 14.3362 223.755 14.7437 226.216 15.7994C228.801 16.9075 230.809 18.6285 231.855 21.3112C232.531 23.0441 232.709 24.8444 232.541 26.6937C232.393 28.3097 231.96 29.8258 231.109 31.2113C230.06 32.9203 228.567 34.1355 226.783 35.0018C224.623 36.0498 222.318 36.5605 219.935 36.6813C215.806 36.8899 211.673 36.6967 208.358 36.7649ZM208.732 25.577C208.732 27.6743 208.731 29.7716 208.732 31.8693C208.732 32.4121 208.733 32.4142 209.255 32.4142C211.546 32.415 213.836 32.4185 216.126 32.4112C216.665 32.4095 217.203 32.4027 217.742 32.3288C219.99 32.0225 221.312 30.8776 221.827 28.6694C222.276 26.7419 222.245 24.7919 221.919 22.8482C221.736 21.7614 221.335 20.7676 220.504 19.9974C219.565 19.1264 218.399 18.8004 217.171 18.777C214.522 18.727 211.87 18.7569 209.22 18.7343C208.821 18.7309 208.721 18.864 208.724 19.2459C208.74 21.3564 208.732 23.4669 208.732 25.577Z" fill="#5F5F5F"/>
<path d="M16.4928 4.91105C17.0685 4.9119 16.9648 4.83766 17.0778 5.35867C18.3174 11.0706 19.5959 16.7736 21.0514 22.4352C21.4371 23.9359 21.8634 25.4243 22.4988 26.8444C23.4627 29.001 25.097 30.2777 27.4367 30.6421C28.104 30.7462 28.7748 30.7927 29.4499 30.8222C30.4172 30.8644 31.3841 30.8478 32.3485 30.8004C33.472 30.7449 34.5828 30.5887 35.6248 30.1177C36.849 29.5638 37.763 28.6805 38.4078 27.5117C39.0611 26.3272 39.4818 25.0505 39.8377 23.7546C40.8533 20.0558 41.7754 16.3336 42.6122 12.5901C43.1635 10.1233 43.7016 7.65352 44.2379 5.18329C44.2844 4.96951 44.3694 4.89526 44.5921 4.90465C45.8197 4.95458 47.047 5.00407 48.2669 5.16196C48.4065 5.17988 48.4496 5.24303 48.4415 5.37104C48.3932 6.10797 48.3472 6.8449 48.2985 7.58183C48.2639 8.10583 48.2243 8.62983 48.1897 9.15383C48.1189 10.2304 48.0493 11.3074 47.9815 12.3844C47.9345 13.1286 47.8936 13.8728 47.8453 14.617C47.7801 15.63 47.7096 16.643 47.6431 17.656C47.5961 18.3644 47.553 19.0731 47.5057 19.7815C47.4378 20.8013 47.3679 21.8211 47.3 22.8414C47.2543 23.5284 47.2113 24.2158 47.1652 24.9028C47.0969 25.9227 47.0265 26.9425 46.9578 27.9623C46.9117 28.6494 46.8699 29.3368 46.8208 30.0238C46.756 30.9301 46.6838 31.8356 46.6177 32.7419C46.5699 33.4003 46.5294 34.0592 46.4803 34.7176C46.4159 35.5881 46.3455 36.4586 46.2789 37.3291C46.2319 37.9448 46.1884 38.561 46.1402 39.1767C46.0741 40.0259 46.0054 40.8746 45.9371 41.7237C45.8769 42.4739 45.8172 43.2236 45.7566 43.9738C45.7297 44.3062 45.6939 44.6382 45.6755 44.971C45.6674 45.1169 45.6055 45.1639 45.4673 45.1767C44.7892 45.2398 44.1129 45.3307 43.4336 45.3751C42.2998 45.4494 41.1643 45.4984 40.0297 45.5518C39.7029 45.5671 39.7041 45.5569 39.6226 45.2398C39.0466 42.997 38.5111 40.7432 37.7515 38.552C37.5352 37.9269 37.2821 37.3175 37.0001 36.7184C36.4035 35.452 35.4085 34.7436 34.0404 34.5059C32.6186 34.2593 31.1874 34.1923 29.7511 34.2593C28.7949 34.3037 27.8369 34.3737 26.8994 34.5917C25.7785 34.8524 24.9579 35.5027 24.4279 36.5204C23.8399 37.6487 23.4623 38.8567 23.0983 40.0685C22.5811 41.7903 22.1561 43.5368 21.7034 45.2761C21.6445 45.5031 21.5485 45.5684 21.3245 45.5582C20.2389 45.5087 19.1538 45.4579 18.0691 45.3952C17.3172 45.3516 16.5692 45.2808 15.8229 45.1818C15.6595 45.16 15.6142 45.0926 15.6023 44.9382C15.5268 43.9618 15.438 42.9864 15.3603 42.0101C15.2946 41.1891 15.2404 40.3677 15.1764 39.5467C15.0979 38.5349 15.0117 37.5236 14.9341 36.5115C14.8824 35.839 14.8423 35.1656 14.7928 34.4931C14.728 33.6082 14.6575 32.724 14.5931 31.839C14.5436 31.1593 14.5009 30.4791 14.4527 29.7993C14.387 28.8717 14.317 27.9444 14.253 27.0172C14.2027 26.2875 14.16 25.5574 14.1114 24.8277C14.0461 23.8506 13.9761 22.8734 13.9112 21.8958C13.8613 21.1448 13.8186 20.3934 13.7696 19.6424C13.7047 18.6579 13.6356 17.6735 13.5703 16.6891C13.5357 16.1719 13.5063 15.6543 13.4726 15.1372C13.4056 14.1101 13.336 13.083 13.2703 12.0559C13.2212 11.2835 13.179 10.5108 13.1295 9.73842C13.0646 8.72541 12.9955 7.7124 12.9289 6.69939C12.8995 6.25305 12.8739 5.80629 12.8419 5.36038C12.8317 5.21999 12.8948 5.17518 13.0258 5.16281C13.5417 5.11374 14.0555 5.04248 14.5718 5.00621C15.2161 4.9597 15.8626 4.94049 16.4928 4.91105Z" fill="#5F5F5F"/>
</svg>
