<svg width="16" height="18" viewBox="0 0 16 18" fill="none" xmlns="http://www.w3.org/2000/svg">
<path d="M7.42147 3.02148C7.42147 2.9806 7.42147 2.95419 7.42147 2.92778C7.42147 2.29771 7.42027 1.66763 7.42214 1.03756C7.42308 0.721586 7.66958 0.466072 7.97828 0.454275C8.30384 0.441942 8.57776 0.704427 8.57843 1.03327C8.57977 1.65664 8.57883 2.28001 8.57883 2.90338C8.57883 2.99347 8.57977 2.99454 8.65427 2.95017C9.06983 2.70229 9.48487 2.45348 9.90057 2.20588C10.2585 1.99272 10.698 2.18711 10.7787 2.59357C10.8264 2.8338 10.7123 3.0743 10.4844 3.21091C10.0579 3.46642 9.63079 3.72127 9.20412 3.97665C9.01473 4.09006 8.82614 4.20481 8.63581 4.31662C8.59435 4.34102 8.57789 4.3693 8.57789 4.4181C8.5791 5.51295 8.5787 6.60767 8.57896 7.70252C8.57896 7.77504 8.58512 7.77813 8.64892 7.74126C9.56539 7.21026 10.4804 6.67684 11.3999 6.15147C11.5081 6.08967 11.5475 6.02679 11.546 5.90346C11.542 5.5596 11.5524 5.21561 11.5587 4.87175C11.565 4.53017 11.5731 4.18859 11.5805 3.84701C11.5872 3.53493 11.8361 3.28424 12.1432 3.28035C12.4619 3.27633 12.7322 3.51736 12.7345 3.83119C12.7376 4.24195 12.7221 4.65283 12.7149 5.06372C12.7134 5.15086 12.7145 5.238 12.7114 5.325C12.7095 5.37876 12.7272 5.38077 12.7686 5.3565C13.0363 5.20019 13.3047 5.04522 13.573 4.88998C13.8567 4.7259 14.14 4.56087 14.4246 4.39839C14.6513 4.26903 14.9599 4.32815 15.1374 4.53205C15.3141 4.73501 15.3216 5.04335 15.1577 5.26347C15.0972 5.34484 15.0166 5.39846 14.9313 5.4478C14.3965 5.7568 13.8616 6.06567 13.3269 6.37481C13.3177 6.38017 13.3094 6.38701 13.2919 6.39948C13.3809 6.44975 13.4635 6.4964 13.5461 6.54278C13.9174 6.75151 14.2888 6.95984 14.6599 7.16883C14.9425 7.32809 15.04 7.67061 14.8867 7.96393C14.7507 8.22427 14.4008 8.33996 14.1281 8.19733C13.8003 8.02587 13.481 7.83805 13.1584 7.65681C12.8279 7.47127 12.4974 7.2856 12.1675 7.09886C12.1314 7.07834 12.1025 7.0821 12.0683 7.10194C11.185 7.61458 10.3014 8.12654 9.41786 8.63865C9.35031 8.67779 9.28371 8.71854 9.21482 8.75514C9.16828 8.77981 9.17175 8.79456 9.21522 8.81949C9.43578 8.94591 9.65514 9.07447 9.87502 9.20196C10.2648 9.42758 10.6548 9.65306 11.0447 9.87841C11.3805 10.0727 11.7168 10.2661 12.0518 10.4617C12.0933 10.486 12.1247 10.4876 12.1677 10.4633C12.8055 10.1011 13.4442 9.74007 14.0834 9.38025C14.3514 9.22944 14.7037 9.33293 14.8613 9.60561C15.019 9.87855 14.9242 10.2325 14.6424 10.3968C14.3535 10.5653 14.0604 10.7265 13.7692 10.891C13.6236 10.9731 13.4784 11.0561 13.3321 11.1371C13.29 11.1604 13.2837 11.1754 13.3304 11.2024C13.7692 11.4547 14.2074 11.7079 14.6454 11.9617C14.7766 12.0377 14.9095 12.1114 15.0361 12.1944C15.2262 12.3191 15.3147 12.5723 15.258 12.8037C15.2017 13.0332 15.0082 13.2057 14.7827 13.2363C14.6362 13.2561 14.5045 13.2229 14.3793 13.1504C13.8698 12.8553 13.3605 12.5602 12.8506 12.266C12.8228 12.2499 12.7922 12.2136 12.763 12.2299C12.7326 12.2469 12.7503 12.2916 12.7507 12.3238C12.7555 12.699 12.7603 13.0742 12.7684 13.4494C12.771 13.5744 12.7879 13.6996 12.7686 13.8239C12.7221 14.1235 12.4591 14.3466 12.1784 14.3286C11.8564 14.308 11.6201 14.0652 11.6135 13.7434C11.6055 13.3481 11.6018 12.9528 11.5943 12.5576C11.5881 12.2315 11.5781 11.9056 11.5725 11.5796C11.5717 11.5307 11.5464 11.5084 11.5097 11.4872C11.0173 11.203 10.5252 10.9182 10.0329 10.6337C9.57141 10.3672 9.10983 10.1008 8.64811 9.83458C8.58231 9.79664 8.57937 9.79798 8.57937 9.87251C8.5791 10.9651 8.5795 12.0577 8.57816 13.1502C8.57816 13.199 8.59528 13.2278 8.63621 13.2522C9.17644 13.5741 9.71599 13.8972 10.2555 14.2201C10.3417 14.2716 10.4277 14.3234 10.5128 14.3765C10.7853 14.5468 10.8688 14.8979 10.7034 15.175C10.5435 15.4428 10.1867 15.5311 9.91234 15.3682C9.49249 15.1189 9.07398 14.8672 8.65453 14.6171C8.63434 14.605 8.61347 14.5781 8.59007 14.5914C8.56666 14.6046 8.57937 14.6365 8.57937 14.6599C8.5787 15.2876 8.58003 15.9156 8.57816 16.5434C8.57723 16.871 8.29942 17.1344 7.97534 17.12C7.6657 17.1061 7.42268 16.8514 7.42187 16.5341C7.42027 15.9331 7.42161 15.332 7.4208 14.731C7.4208 14.6965 7.43873 14.6477 7.4093 14.6305C7.38041 14.6136 7.34617 14.6522 7.31661 14.6699C6.9183 14.9076 6.52038 15.146 6.12287 15.3848C5.90258 15.5173 5.68162 15.521 5.46842 15.3768C5.12615 15.1453 5.13805 14.6321 5.4921 14.4106C5.79264 14.2227 6.09946 14.0448 6.40362 13.8625C6.7269 13.6688 7.04964 13.4742 7.37412 13.2824C7.42308 13.2535 7.42161 13.2134 7.42161 13.1681C7.42134 12.1113 7.42134 11.0544 7.42134 9.99759C7.42134 9.95509 7.42174 9.91273 7.42121 9.87024C7.4204 9.79959 7.41599 9.7965 7.35593 9.83096C7.20506 9.91742 7.05446 10.0046 6.90399 10.0917C6.42154 10.3709 5.9391 10.6503 5.45679 10.9296C5.14421 11.1105 4.83189 11.2919 4.51851 11.4717C4.4824 11.4923 4.4713 11.5179 4.46956 11.5578C4.45712 11.8369 4.46046 12.1161 4.45565 12.3952C4.44789 12.8485 4.44067 13.3019 4.42984 13.7551C4.42261 14.0571 4.17624 14.3082 3.88239 14.3198C3.56673 14.3321 3.29642 14.112 3.2785 13.7992C3.26325 13.5324 3.2805 13.2638 3.28385 12.9959C3.28706 12.7391 3.29187 12.4822 3.29334 12.2254C3.29374 12.1666 3.25736 12.2051 3.24158 12.2141C3.08429 12.3029 2.92793 12.3932 2.77157 12.4837C2.38958 12.7049 2.00544 12.9227 1.62639 13.1492C1.28532 13.3529 0.912685 13.1951 0.781206 12.916C0.649059 12.6356 0.756997 12.3065 1.02597 12.1518C1.55363 11.8483 2.07967 11.5419 2.60599 11.2362C2.68062 11.1927 2.67942 11.1798 2.60291 11.1368C2.1832 10.9006 1.76215 10.6667 1.3443 10.4271C0.993739 10.2263 0.94532 9.76044 1.24212 9.48696C1.42255 9.3206 1.70089 9.29539 1.92773 9.42315C2.55329 9.77559 3.17952 10.1267 3.80428 10.4803C3.85096 10.5067 3.88399 10.4995 3.92626 10.475C4.84808 9.93995 5.77043 9.40586 6.69279 8.87177C6.83871 8.78732 6.83978 8.78584 6.69359 8.70112C6.00463 8.30229 5.31514 7.90454 4.62592 7.50626C4.40777 7.38024 4.18935 7.25463 3.9724 7.12634C3.93 7.10127 3.8983 7.10368 3.85644 7.12741C3.21456 7.49165 2.57228 7.85535 1.92893 8.2169C1.65394 8.37147 1.29963 8.26757 1.14608 7.99222C0.989994 7.71217 1.0875 7.36201 1.36798 7.20248C1.80401 6.95448 2.24098 6.70781 2.67728 6.4602C2.696 6.44961 2.72623 6.44452 2.72663 6.42039C2.72717 6.3921 2.69467 6.38674 2.67447 6.37508C2.1206 6.05454 1.56513 5.73656 1.01287 5.41335C0.751513 5.26025 0.656549 4.95138 0.77492 4.67428C0.907335 4.36421 1.30097 4.23752 1.59308 4.40737C2.12702 4.71785 2.66243 5.02578 3.19744 5.33452C3.26151 5.37152 3.26338 5.37085 3.26204 5.29484C3.25348 4.8125 3.24171 4.33016 3.2365 3.84782C3.23422 3.63158 3.33547 3.46495 3.51925 3.35475C3.90058 3.12605 4.38302 3.39752 4.39238 3.8442C4.39854 4.13229 4.40188 4.42038 4.40736 4.70847C4.41552 5.13719 4.42582 5.5659 4.43171 5.99462C4.43251 6.05615 4.47157 6.07398 4.51129 6.09704C4.91442 6.33084 5.31768 6.56437 5.72108 6.79776C6.25957 7.10931 6.79819 7.42073 7.33667 7.73215C7.35018 7.73992 7.36383 7.7477 7.37733 7.75534C7.4101 7.77384 7.42214 7.76016 7.42147 7.72665C7.42121 7.71324 7.42161 7.69984 7.42161 7.68643C7.42161 6.61169 7.42107 5.53708 7.42294 4.46234C7.42308 4.39812 7.40194 4.3634 7.34657 4.33069C6.9413 4.09167 6.53857 3.84849 6.13478 3.60691C5.93575 3.48787 5.73726 3.36789 5.53704 3.25086C5.20386 3.05607 5.11826 2.6543 5.34925 2.36138C5.52406 2.13965 5.85269 2.08429 6.10522 2.23523C6.51677 2.48123 6.92779 2.72803 7.33908 2.9743C7.36182 2.98797 7.38496 3.00071 7.42147 3.02148Z" fill="#959595"/>
</svg>
